<?xml version="1.0" encoding="utf-8"?>
<svg viewBox="0 0 900 200" width="900px" height="200px" xmlns="http://www.w3.org/2000/svg">
  <path d="M 0 3 L 13.7 4.7 C 27.3 6.3 54.7 9.7 82 11.8 C 109.3 14 136.7 15 163.8 16.3 C 191 17.7 218 19.3 245.2 19.8 C 272.3 20.3 299.7 19.7 327 18.8 C 354.3 18 381.7 17 409 14.8 C 436.3 12.7 463.7 9.3 491 6.7 C 518.3 4 545.7 2 573 2.8 C 600.3 3.7 627.7 7.3 654.8 10.3 C 682 13.3 709 15.7 736.2 14 C 763.3 12.3 790.7 6.7 818 6.5 C 845.3 6.3 872.7 4.716 886.3 3 L 900 3 L 900 201 L 886.3 201 C 872.7 201 845.3 201 818 201 C 790.7 201 763.3 201 736.2 201 C 709 201 682 201 654.8 201 C 627.7 201 600.3 201 573 201 C 545.7 201 518.3 201 491 201 C 463.7 201 436.3 201 409 201 C 381.7 201 354.3 201 327 201 C 299.7 201 272.3 201 245.2 201 C 218 201 191 201 163.8 201 C 136.7 201 109.3 201 82 201 C 54.7 201 27.3 201 13.7 201 L 0 201 L 0 3 Z" fill="#88574a33"/>
  <path d="M 0 18 L 13.7 20.3 C 27.3 22.7 54.7 27.3 82 31.5 C 109.3 35.7 136.7 39.3 163.8 41.2 C 191 43 218 43 245.2 40.7 C 272.3 38.3 299.7 33.7 327 33.7 C 354.3 33.7 381.7 38.3 409 37.5 C 436.3 36.7 463.7 30.3 491 29.5 C 518.3 28.7 545.7 33.3 573 32.3 C 600.3 31.3 627.7 24.7 654.8 21.2 C 682 17.7 709 17.3 736.2 17.2 C 763.3 17 790.7 17 818 21.2 C 845.3 25.3 872.7 16.177 886.3 17.401 L 900 18 L 900 201 L 886.3 201 C 872.7 201 845.3 201 818 201 C 790.7 201 763.3 201 736.2 201 C 709 201 682 201 654.8 201 C 627.7 201 600.3 201 573 201 C 545.7 201 518.3 201 491 201 C 463.7 201 436.3 201 409 201 C 381.7 201 354.3 201 327 201 C 299.7 201 272.3 201 245.2 201 C 218 201 191 201 163.8 201 C 136.7 201 109.3 201 82 201 C 54.7 201 27.3 201 13.7 201 L 0 201 L 0 18 Z" fill="#7f534833"/>
  <path d="M 0 37 L 13.7 40.3 C 27.3 43.7 54.7 50.3 82 52 C 109.3 53.7 136.7 50.3 163.8 47.7 C 191 45 218 43 245.2 44.7 C 272.3 46.3 299.7 51.7 327 54 C 354.3 56.3 381.7 55.7 409 52.7 C 436.3 49.7 463.7 44.3 491 42.7 C 518.3 41 545.7 43 573 45.7 C 600.3 48.3 627.7 51.7 654.8 53.8 C 682 56 709 57 736.2 57.2 C 763.3 57.3 790.7 56.7 818 56.5 C 845.3 56.3 873.425 28.43 887.025 32.879 L 900 37 L 900 201 L 886.3 201 C 872.7 201 845.3 201 818 201 C 790.7 201 763.3 201 736.2 201 C 709 201 682 201 654.8 201 C 627.7 201 600.3 201 573 201 C 545.7 201 518.3 201 491 201 C 463.7 201 436.3 201 409 201 C 381.7 201 354.3 201 327 201 C 299.7 201 272.3 201 245.2 201 C 218 201 191 201 163.8 201 C 136.7 201 109.3 201 82 201 C 54.7 201 27.3 201 13.7 201 L 0 201 L 0 37 Z" fill="#77504533"/>
  <path d="M 0 62 L 13.7 62.3 C 27.3 62.7 54.7 63.3 82 65.5 C 109.3 67.7 136.7 71.3 163.8 73.3 C 191 75.3 218 75.7 245.2 74.7 C 272.3 73.7 299.7 71.3 327 68.5 C 354.3 65.7 381.7 62.3 409 58.5 C 436.3 54.7 463.7 50.3 491 49.5 C 518.3 48.7 545.7 51.3 573 55.7 C 600.3 60 627.7 66 654.8 67.2 C 682 68.3 709 64.7 736.2 62.2 C 763.3 59.7 790.7 58.3 818 58.2 C 845.3 58 872.7 64.798 886.3 63.124 L 900 62 L 900 201 L 886.3 201 C 872.7 201 845.3 201 818 201 C 790.7 201 763.3 201 736.2 201 C 709 201 682 201 654.8 201 C 627.7 201 600.3 201 573 201 C 545.7 201 518.3 201 491 201 C 463.7 201 436.3 201 409 201 C 381.7 201 354.3 201 327 201 C 299.7 201 272.3 201 245.2 201 C 218 201 191 201 163.8 201 C 136.7 201 109.3 201 82 201 C 54.7 201 27.3 201 13.7 201 L 0 201 L 0 62 Z" fill="#6e4c4333"/>
  <path d="M 0 71 L 13.7 73 C 27.3 75 54.7 79 82 79.3 C 109.3 79.7 136.7 76.3 163.8 73.7 C 191 71 218 69 245.2 67.3 C 272.3 65.7 299.7 64.3 327 65.5 C 354.3 66.7 381.7 70.3 409 73 C 436.3 75.7 463.7 77.3 491 76.3 C 518.3 75.3 545.7 71.7 573 71.5 C 600.3 71.3 627.7 74.7 654.8 77.8 C 682 81 709 84 736.2 83.7 C 763.3 83.3 790.7 79.7 818 76.5 C 845.3 73.3 872.7 67.076 886.3 69.3 L 900 71 L 900 201 L 886.3 201 C 872.7 201 845.3 201 818 201 C 790.7 201 763.3 201 736.2 201 C 709 201 682 201 654.8 201 C 627.7 201 600.3 201 573 201 C 545.7 201 518.3 201 491 201 C 463.7 201 436.3 201 409 201 C 381.7 201 354.3 201 327 201 C 299.7 201 272.3 201 245.2 201 C 218 201 191 201 163.8 201 C 136.7 201 109.3 201 82 201 C 54.7 201 27.3 201 13.7 201 L 0 201 L 0 71 Z" fill="#65484133"/>
  <path d="M 0 78 L 13.7 80.3 C 27.3 82.7 54.7 87.3 82 90.7 C 109.3 94 136.7 96 163.8 93.8 C 191 91.7 218 85.3 245.2 85 C 272.3 84.7 299.7 90.3 327 94.3 C 354.3 98.3 381.7 100.7 409 98.7 C 436.3 96.7 463.7 90.3 491 89.3 C 518.3 88.3 545.7 92.7 573 93.5 C 600.3 94.3 627.7 91.7 654.8 90 C 682 88.3 709 87.7 736.2 86.5 C 763.3 85.3 790.7 83.7 818 85 C 845.3 86.3 872.7 72.578 886.3 74.678 L 900 78 L 900 201 L 886.3 201 C 872.7 201 845.3 201 818 201 C 790.7 201 763.3 201 736.2 201 C 709 201 682 201 654.8 201 C 627.7 201 600.3 201 573 201 C 545.7 201 518.3 201 491 201 C 463.7 201 436.3 201 409 201 C 381.7 201 354.3 201 327 201 C 299.7 201 272.3 201 245.2 201 C 218 201 191 201 163.8 201 C 136.7 201 109.3 201 82 201 C 54.7 201 27.3 201 13.7 201 L 0 201 L 0 78 Z" fill="#62474033"/>
  <path d="M 0 105 L 13.7 103 C 27.3 101 54.7 97 82 97.8 C 109.3 98.7 136.7 104.3 163.8 107 C 191 109.7 218 109.3 245.2 110.3 C 272.3 111.3 299.7 113.7 327 113.5 C 354.3 113.3 381.7 110.7 409 108.7 C 436.3 106.7 463.7 105.3 491 106.5 C 518.3 107.7 545.7 111.3 573 111.8 C 600.3 112.3 627.7 109.7 654.8 110.7 C 682 111.7 709 116.3 736.2 115.2 C 763.3 114 790.7 107 818 102.8 C 845.3 98.7 874.15 111.073 887.75 108.298 L 900 105 L 900 201 L 886.3 201 C 872.7 201 845.3 201 818 201 C 790.7 201 763.3 201 736.2 201 C 709 201 682 201 654.8 201 C 627.7 201 600.3 201 573 201 C 545.7 201 518.3 201 491 201 C 463.7 201 436.3 201 409 201 C 381.7 201 354.3 201 327 201 C 299.7 201 272.3 201 245.2 201 C 218 201 191 201 163.8 201 C 136.7 201 109.3 201 82 201 C 54.7 201 27.3 201 13.7 201 L 0 201 L 0 105 Z" fill="#62474033"/>
  <path d="M 0 118 L 13.7 121.2 C 27.3 124.3 54.7 130.7 82 130.3 C 109.3 130 136.7 123 163.8 118.5 C 191 114 218 112 245.2 114.2 C 272.3 116.3 299.7 122.7 327 122.5 C 354.3 122.3 381.7 115.7 409 113.5 C 436.3 111.3 463.7 113.7 491 118 C 518.3 122.3 545.7 128.7 573 128.7 C 600.3 128.7 627.7 122.3 654.8 117.8 C 682 113.3 709 110.7 736.2 112.5 C 763.3 114.3 790.7 120.7 818 123.5 C 845.3 126.3 871.975 109.028 886.3 112.977 L 900 118 L 900 201 L 886.3 201 C 872.7 201 845.3 201 818 201 C 790.7 201 763.3 201 736.2 201 C 709 201 682 201 654.8 201 C 627.7 201 600.3 201 573 201 C 545.7 201 518.3 201 491 201 C 463.7 201 436.3 201 409 201 C 381.7 201 354.3 201 327 201 C 299.7 201 272.3 201 245.2 201 C 218 201 191 201 163.8 201 C 136.7 201 109.3 201 82 201 C 54.7 201 27.3 201 13.7 201 L 0 201 L 0 118 Z" fill="#65484133"/>
  <path d="M 0 125 L 13.7 124.8 C 27.3 124.7 54.7 124.3 82 124 C 109.3 123.7 136.7 123.3 163.8 124.8 C 191 126.3 218 129.7 245.2 129.8 C 272.3 130 299.7 127 327 126.8 C 354.3 126.7 381.7 129.3 409 131.7 C 436.3 134 463.7 136 491 136.8 C 518.3 137.7 545.7 137.3 573 135.3 C 600.3 133.3 627.7 129.7 654.8 129.5 C 682 129.3 709 132.7 736.2 135.3 C 763.3 138 790.7 140 818 142.2 C 845.3 144.3 871.975 127.129 886.3 126.054 L 900 125 L 900 201 L 886.3 201 C 872.7 201 845.3 201 818 201 C 790.7 201 763.3 201 736.2 201 C 709 201 682 201 654.8 201 C 627.7 201 600.3 201 573 201 C 545.7 201 518.3 201 491 201 C 463.7 201 436.3 201 409 201 C 381.7 201 354.3 201 327 201 C 299.7 201 272.3 201 245.2 201 C 218 201 191 201 163.8 201 C 136.7 201 109.3 201 82 201 C 54.7 201 27.3 201 13.7 201 L 0 201 L 0 125 Z" fill="#6e4c4333"/>
  <path d="M 0 143 L 13.7 143.8 C 27.3 144.7 54.7 146.3 82 147.3 C 109.3 148.3 136.7 148.7 163.8 148.7 C 191 148.7 218 148.3 245.2 151 C 272.3 153.7 299.7 159.3 327 162.5 C 354.3 165.7 381.7 166.3 409 162.2 C 436.3 158 463.7 149 491 144.3 C 518.3 139.7 545.7 139.3 573 143.3 C 600.3 147.3 627.7 155.7 654.8 158 C 682 160.3 709 156.7 736.2 153 C 763.3 149.3 790.7 145.7 818 145 C 845.3 144.3 872.7 141.626 886.3 142.726 L 900 143 L 900 201 L 886.3 201 C 872.7 201 845.3 201 818 201 C 790.7 201 763.3 201 736.2 201 C 709 201 682 201 654.8 201 C 627.7 201 600.3 201 573 201 C 545.7 201 518.3 201 491 201 C 463.7 201 436.3 201 409 201 C 381.7 201 354.3 201 327 201 C 299.7 201 272.3 201 245.2 201 C 218 201 191 201 163.8 201 C 136.7 201 109.3 201 82 201 C 54.7 201 27.3 201 13.7 201 L 0 201 L 0 143 Z" fill="#77504566"/>
  <path d="M 0 160 L 13.7 160.7 C 27.3 161.3 54.7 162.7 82 163.7 C 109.3 164.7 136.7 165.3 163.8 166 C 191 166.7 218 167.3 245.2 167.3 C 272.3 167.3 299.7 166.7 327 167.7 C 354.3 168.7 381.7 171.3 409 171.2 C 436.3 171 463.7 168 491 168.2 C 518.3 168.3 545.7 171.7 573 171.7 C 600.3 171.7 627.7 168.3 654.8 166.7 C 682 165 709 165 736.2 167.8 C 763.3 170.7 790.7 176.3 818 174.7 C 845.3 173 872.7 160.376 886.3 160.225 L 900 160 L 900 201 L 886.3 201 C 872.7 201 845.3 201 818 201 C 790.7 201 763.3 201 736.2 201 C 709 201 682 201 654.8 201 C 627.7 201 600.3 201 573 201 C 545.7 201 518.3 201 491 201 C 463.7 201 436.3 201 409 201 C 381.7 201 354.3 201 327 201 C 299.7 201 272.3 201 245.2 201 C 218 201 191 201 163.8 201 C 136.7 201 109.3 201 82 201 C 54.7 201 27.3 201 13.7 201 L 0 201 L 0 160 Z" fill="#7f534866"/>
  <path d="M 0 177 L 13.7 177.5 C 27.3 178 54.7 179 82 178.2 C 109.3 177.3 136.7 174.7 163.8 176.3 C 191 178 218 184 245.2 185.5 C 272.3 187 299.7 184 327 181.3 C 354.3 178.7 381.7 176.3 409 179.2 C 436.3 182 463.7 190 491 192.3 C 518.3 194.7 545.7 191.3 573 186.8 C 600.3 182.3 627.7 176.7 654.8 174.7 C 682 172.7 709 174.3 736.2 174.8 C 763.3 175.3 790.7 174.7 818 177.3 C 845.3 180 871.975 176.576 885.575 175.952 L 900 177 L 900 201 L 886.3 201 C 872.7 201 845.3 201 818 201 C 790.7 201 763.3 201 736.2 201 C 709 201 682 201 654.8 201 C 627.7 201 600.3 201 573 201 C 545.7 201 518.3 201 491 201 C 463.7 201 436.3 201 409 201 C 381.7 201 354.3 201 327 201 C 299.7 201 272.3 201 245.2 201 C 218 201 191 201 163.8 201 C 136.7 201 109.3 201 82 201 C 54.7 201 27.3 201 13.7 201 L 0 201 L 0 177 Z" fill="#88574a66"/>
</svg>