<svg id="visual" viewBox="0 0 900 100" width="900" height="100" xmlns="http://www.w3.org/2000/svg" xmlns:xlink="http://www.w3.org/1999/xlink" version="1.1"><path d="M0 49L39 45L78 44L117 51L157 51L196 48L235 45L274 52L313 48L352 46L391 48L430 47L470 52L509 47L548 44L587 51L626 52L665 50L704 45L743 48L783 49L822 50L861 50L900 47L900 101L861 101L822 101L783 101L743 101L704 101L665 101L626 101L587 101L548 101L509 101L470 101L430 101L391 101L352 101L313 101L274 101L235 101L196 101L157 101L117 101L78 101L39 101L0 101Z" fill="#15415e"></path></svg>