<svg id="visual" viewBox="0 0 900 100" width="900" height="100" xmlns="http://www.w3.org/2000/svg" xmlns:xlink="http://www.w3.org/1999/xlink" version="1.1"><path d="M0 48L39 58L78 55L117 56L157 59L196 42L235 54L274 42L313 46L352 55L391 53L430 43L470 55L509 46L548 58L587 46L626 51L665 43L704 42L743 40L783 52L822 51L861 56L900 48L900 101L861 101L822 101L783 101L743 101L704 101L665 101L626 101L587 101L548 101L509 101L470 101L430 101L391 101L352 101L313 101L274 101L235 101L196 101L157 101L117 101L78 101L39 101L0 101Z" fill="#030303"></path></svg>