<svg id="visual" viewBox="0 0 900 200" width="900" height="200" xmlns="http://www.w3.org/2000/svg" xmlns:xlink="http://www.w3.org/1999/xlink" version="1.1"><path d="M0 3L13.7 4.7C27.3 6.3 54.7 9.7 82 11.8C109.3 14 136.7 15 163.8 16.3C191 17.7 218 19.3 245.2 19.8C272.3 20.3 299.7 19.7 327 18.8C354.3 18 381.7 17 409 14.8C436.3 12.7 463.7 9.3 491 6.7C518.3 4 545.7 2 573 2.8C600.3 3.7 627.7 7.3 654.8 10.3C682 13.3 709 15.7 736.2 14C763.3 12.3 790.7 6.7 818 6.5C845.3 6.3 872.7 11.7 886.3 14.3L900 17L900 201L886.3 201C872.7 201 845.3 201 818 201C790.7 201 763.3 201 736.2 201C709 201 682 201 654.8 201C627.7 201 600.3 201 573 201C545.7 201 518.3 201 491 201C463.7 201 436.3 201 409 201C381.7 201 354.3 201 327 201C299.7 201 272.3 201 245.2 201C218 201 191 201 163.8 201C136.7 201 109.3 201 82 201C54.7 201 27.3 201 13.7 201L0 201Z" fill="#88574a33"></path><path d="M0 18L13.7 20.3C27.3 22.7 54.7 27.3 82 31.5C109.3 35.7 136.7 39.3 163.8 41.2C191 43 218 43 245.2 40.7C272.3 38.3 299.7 33.7 327 33.7C354.3 33.7 381.7 38.3 409 37.5C436.3 36.7 463.7 30.3 491 29.5C518.3 28.7 545.7 33.3 573 32.3C600.3 31.3 627.7 24.7 654.8 21.2C682 17.7 709 17.3 736.2 17.2C763.3 17 790.7 17 818 21.2C845.3 25.3 872.7 33.7 886.3 37.8L900 42L900 201L886.3 201C872.7 201 845.3 201 818 201C790.7 201 763.3 201 736.2 201C709 201 682 201 654.8 201C627.7 201 600.3 201 573 201C545.7 201 518.3 201 491 201C463.7 201 436.3 201 409 201C381.7 201 354.3 201 327 201C299.7 201 272.3 201 245.2 201C218 201 191 201 163.8 201C136.7 201 109.3 201 82 201C54.7 201 27.3 201 13.7 201L0 201Z" fill="#7f534833"></path><path d="M0 37L13.7 40.3C27.3 43.7 54.7 50.3 82 52C109.3 53.7 136.7 50.3 163.8 47.7C191 45 218 43 245.2 44.7C272.3 46.3 299.7 51.7 327 54C354.3 56.3 381.7 55.7 409 52.7C436.3 49.7 463.7 44.3 491 42.7C518.3 41 545.7 43 573 45.7C600.3 48.3 627.7 51.7 654.8 53.8C682 56 709 57 736.2 57.2C763.3 57.3 790.7 56.7 818 56.5C845.3 56.3 872.7 56.7 886.3 56.8L900 57L900 201L886.3 201C872.7 201 845.3 201 818 201C790.7 201 763.3 201 736.2 201C709 201 682 201 654.8 201C627.7 201 600.3 201 573 201C545.7 201 518.3 201 491 201C463.7 201 436.3 201 409 201C381.7 201 354.3 201 327 201C299.7 201 272.3 201 245.2 201C218 201 191 201 163.8 201C136.7 201 109.3 201 82 201C54.7 201 27.3 201 13.7 201L0 201Z" fill="#77504533"></path><path d="M0 62L13.7 62.3C27.3 62.7 54.7 63.3 82 65.5C109.3 67.7 136.7 71.3 163.8 73.3C191 75.3 218 75.7 245.2 74.7C272.3 73.7 299.7 71.3 327 68.5C354.3 65.7 381.7 62.3 409 58.5C436.3 54.7 463.7 50.3 491 49.5C518.3 48.7 545.7 51.3 573 55.7C600.3 60 627.7 66 654.8 67.2C682 68.3 709 64.7 736.2 62.2C763.3 59.7 790.7 58.3 818 58.2C845.3 58 872.7 59 886.3 59.5L900 60L900 201L886.3 201C872.7 201 845.3 201 818 201C790.7 201 763.3 201 736.2 201C709 201 682 201 654.8 201C627.7 201 600.3 201 573 201C545.7 201 518.3 201 491 201C463.7 201 436.3 201 409 201C381.7 201 354.3 201 327 201C299.7 201 272.3 201 245.2 201C218 201 191 201 163.8 201C136.7 201 109.3 201 82 201C54.7 201 27.3 201 13.7 201L0 201Z" fill="#6e4c4333"></path><path d="M0 71L13.7 73C27.3 75 54.7 79 82 79.3C109.3 79.7 136.7 76.3 163.8 73.7C191 71 218 69 245.2 67.3C272.3 65.7 299.7 64.3 327 65.5C354.3 66.7 381.7 70.3 409 73C436.3 75.7 463.7 77.3 491 76.3C518.3 75.3 545.7 71.7 573 71.5C600.3 71.3 627.7 74.7 654.8 77.8C682 81 709 84 736.2 83.7C763.3 83.3 790.7 79.7 818 76.5C845.3 73.3 872.7 70.7 886.3 69.3L900 68L900 201L886.3 201C872.7 201 845.3 201 818 201C790.7 201 763.3 201 736.2 201C709 201 682 201 654.8 201C627.7 201 600.3 201 573 201C545.7 201 518.3 201 491 201C463.7 201 436.3 201 409 201C381.7 201 354.3 201 327 201C299.7 201 272.3 201 245.2 201C218 201 191 201 163.8 201C136.7 201 109.3 201 82 201C54.7 201 27.3 201 13.7 201L0 201Z" fill="#65484133"></path><path d="M0 78L13.7 80.3C27.3 82.7 54.7 87.3 82 90.7C109.3 94 136.7 96 163.8 93.8C191 91.7 218 85.3 245.2 85C272.3 84.7 299.7 90.3 327 94.3C354.3 98.3 381.7 100.7 409 98.7C436.3 96.7 463.7 90.3 491 89.3C518.3 88.3 545.7 92.7 573 93.5C600.3 94.3 627.7 91.7 654.8 90C682 88.3 709 87.7 736.2 86.5C763.3 85.3 790.7 83.7 818 85C845.3 86.3 872.7 90.7 886.3 92.8L900 95L900 201L886.3 201C872.7 201 845.3 201 818 201C790.7 201 763.3 201 736.2 201C709 201 682 201 654.8 201C627.7 201 600.3 201 573 201C545.7 201 518.3 201 491 201C463.7 201 436.3 201 409 201C381.7 201 354.3 201 327 201C299.7 201 272.3 201 245.2 201C218 201 191 201 163.8 201C136.7 201 109.3 201 82 201C54.7 201 27.3 201 13.7 201L0 201Z" fill="#62474033"></path><path d="M0 105L13.7 103C27.3 101 54.7 97 82 97.8C109.3 98.7 136.7 104.3 163.8 107C191 109.7 218 109.3 245.2 110.3C272.3 111.3 299.7 113.7 327 113.5C354.3 113.3 381.7 110.7 409 108.7C436.3 106.7 463.7 105.3 491 106.5C518.3 107.7 545.7 111.3 573 111.8C600.3 112.3 627.7 109.7 654.8 110.7C682 111.7 709 116.3 736.2 115.2C763.3 114 790.7 107 818 102.8C845.3 98.7 872.7 97.3 886.3 96.7L900 96L900 201L886.3 201C872.7 201 845.3 201 818 201C790.7 201 763.3 201 736.2 201C709 201 682 201 654.8 201C627.7 201 600.3 201 573 201C545.7 201 518.3 201 491 201C463.7 201 436.3 201 409 201C381.7 201 354.3 201 327 201C299.7 201 272.3 201 245.2 201C218 201 191 201 163.8 201C136.7 201 109.3 201 82 201C54.7 201 27.3 201 13.7 201L0 201Z" fill="#62474033"></path><path d="M0 118L13.7 121.2C27.3 124.3 54.7 130.7 82 130.3C109.3 130 136.7 123 163.8 118.5C191 114 218 112 245.2 114.2C272.3 116.3 299.7 122.7 327 122.5C354.3 122.3 381.7 115.7 409 113.5C436.3 111.3 463.7 113.7 491 118C518.3 122.3 545.7 128.7 573 128.7C600.3 128.7 627.7 122.3 654.8 117.8C682 113.3 709 110.7 736.2 112.5C763.3 114.3 790.7 120.7 818 123.5C845.3 126.3 872.7 125.7 886.3 125.3L900 125L900 201L886.3 201C872.7 201 845.3 201 818 201C790.7 201 763.3 201 736.2 201C709 201 682 201 654.8 201C627.7 201 600.3 201 573 201C545.7 201 518.3 201 491 201C463.7 201 436.3 201 409 201C381.7 201 354.3 201 327 201C299.7 201 272.3 201 245.2 201C218 201 191 201 163.8 201C136.7 201 109.3 201 82 201C54.7 201 27.3 201 13.7 201L0 201Z" fill="#65484133"></path><path d="M0 125L13.7 124.8C27.3 124.7 54.7 124.3 82 124C109.3 123.7 136.7 123.3 163.8 124.8C191 126.3 218 129.7 245.2 129.8C272.3 130 299.7 127 327 126.8C354.3 126.7 381.7 129.3 409 131.7C436.3 134 463.7 136 491 136.8C518.3 137.7 545.7 137.3 573 135.3C600.3 133.3 627.7 129.7 654.8 129.5C682 129.3 709 132.7 736.2 135.3C763.3 138 790.7 140 818 142.2C845.3 144.3 872.7 146.7 886.3 147.8L900 149L900 201L886.3 201C872.7 201 845.3 201 818 201C790.7 201 763.3 201 736.2 201C709 201 682 201 654.8 201C627.7 201 600.3 201 573 201C545.7 201 518.3 201 491 201C463.7 201 436.3 201 409 201C381.7 201 354.3 201 327 201C299.7 201 272.3 201 245.2 201C218 201 191 201 163.8 201C136.7 201 109.3 201 82 201C54.7 201 27.3 201 13.7 201L0 201Z" fill="#6e4c4333"></path><path d="M0 143L13.7 143.8C27.3 144.7 54.7 146.3 82 147.3C109.3 148.3 136.7 148.7 163.8 148.7C191 148.7 218 148.3 245.2 151C272.3 153.7 299.7 159.3 327 162.5C354.3 165.7 381.7 166.3 409 162.2C436.3 158 463.7 149 491 144.3C518.3 139.7 545.7 139.3 573 143.3C600.3 147.3 627.7 155.7 654.8 158C682 160.3 709 156.7 736.2 153C763.3 149.3 790.7 145.7 818 145C845.3 144.3 872.7 146.7 886.3 147.8L900 149L900 201L886.3 201C872.7 201 845.3 201 818 201C790.7 201 763.3 201 736.2 201C709 201 682 201 654.8 201C627.7 201 600.3 201 573 201C545.7 201 518.3 201 491 201C463.7 201 436.3 201 409 201C381.7 201 354.3 201 327 201C299.7 201 272.3 201 245.2 201C218 201 191 201 163.8 201C136.7 201 109.3 201 82 201C54.7 201 27.3 201 13.7 201L0 201Z" fill="#775045"></path><path d="M0 160L13.7 160.7C27.3 161.3 54.7 162.7 82 163.7C109.3 164.7 136.7 165.3 163.8 166C191 166.7 218 167.3 245.2 167.3C272.3 167.3 299.7 166.7 327 167.7C354.3 168.7 381.7 171.3 409 171.2C436.3 171 463.7 168 491 168.2C518.3 168.3 545.7 171.7 573 171.7C600.3 171.7 627.7 168.3 654.8 166.7C682 165 709 165 736.2 167.8C763.3 170.7 790.7 176.3 818 174.7C845.3 173 872.7 164 886.3 159.5L900 155L900 201L886.3 201C872.7 201 845.3 201 818 201C790.7 201 763.3 201 736.2 201C709 201 682 201 654.8 201C627.7 201 600.3 201 573 201C545.7 201 518.3 201 491 201C463.7 201 436.3 201 409 201C381.7 201 354.3 201 327 201C299.7 201 272.3 201 245.2 201C218 201 191 201 163.8 201C136.7 201 109.3 201 82 201C54.7 201 27.3 201 13.7 201L0 201Z" fill="#7f5348"></path><path d="M0 177L13.7 177.5C27.3 178 54.7 179 82 178.2C109.3 177.3 136.7 174.7 163.8 176.3C191 178 218 184 245.2 185.5C272.3 187 299.7 184 327 181.3C354.3 178.7 381.7 176.3 409 179.2C436.3 182 463.7 190 491 192.3C518.3 194.7 545.7 191.3 573 186.8C600.3 182.3 627.7 176.7 654.8 174.7C682 172.7 709 174.3 736.2 174.8C763.3 175.3 790.7 174.7 818 177.3C845.3 180 872.7 186 886.3 189L900 192L900 201L886.3 201C872.7 201 845.3 201 818 201C790.7 201 763.3 201 736.2 201C709 201 682 201 654.8 201C627.7 201 600.3 201 573 201C545.7 201 518.3 201 491 201C463.7 201 436.3 201 409 201C381.7 201 354.3 201 327 201C299.7 201 272.3 201 245.2 201C218 201 191 201 163.8 201C136.7 201 109.3 201 82 201C54.7 201 27.3 201 13.7 201L0 201Z" fill="#88574a"></path></svg>