<svg id="visual" viewBox="0 0 900 100" width="900" height="100" xmlns="http://www.w3.org/2000/svg" xmlns:xlink="http://www.w3.org/1999/xlink" version="1.1"><path d="M0 47L39 51L78 51L117 49L157 47L196 49L235 48L274 46L313 45L352 48L391 49L430 44L470 53L509 45L548 46L587 45L626 46L665 46L704 53L743 53L783 50L822 53L861 53L900 52L900 101L861 101L822 101L783 101L743 101L704 101L665 101L626 101L587 101L548 101L509 101L470 101L430 101L391 101L352 101L313 101L274 101L235 101L196 101L157 101L117 101L78 101L39 101L0 101Z" fill="#265b7a"></path></svg>