<svg id="visual" viewBox="0 0 900 100" width="900" height="100" xmlns="http://www.w3.org/2000/svg" xmlns:xlink="http://www.w3.org/1999/xlink" version="1.1"><path d="M0 53L39 45L78 45L117 44L157 48L196 49L235 50L274 47L313 48L352 46L391 45L430 45L470 52L509 47L548 52L587 53L626 45L665 50L704 52L743 47L783 50L822 53L861 50L900 45L900 101L861 101L822 101L783 101L743 101L704 101L665 101L626 101L587 101L548 101L509 101L470 101L430 101L391 101L352 101L313 101L274 101L235 101L196 101L157 101L117 101L78 101L39 101L0 101Z" fill="#4893b4"></path></svg>