<svg id="visual" viewBox="0 0 900 100" width="900" height="100" xmlns="http://www.w3.org/2000/svg" xmlns:xlink="http://www.w3.org/1999/xlink" version="1.1"><path d="M0 45L39 46L78 45L117 44L157 49L196 50L235 46L274 51L313 53L352 52L391 53L430 52L470 52L509 46L548 47L587 48L626 47L665 53L704 54L743 51L783 49L822 45L861 48L900 52L900 101L861 101L822 101L783 101L743 101L704 101L665 101L626 101L587 101L548 101L509 101L470 101L430 101L391 101L352 101L313 101L274 101L235 101L196 101L157 101L117 101L78 101L39 101L0 101Z" fill="#377697"></path></svg>